:SAMPLES-PER-SECOND 30
:FULLY-SPECIFIED
:DEGREES
33
root  81.0807 39.4153 -2.46214 130.587 -88.6459 -132.535
RightUpLeg  -0.595672 -12.3013 -2.54188
RightLeg  16.4324 -3.06706 1.88867
RightFoot  -14.5673 -0.0984697 0.0103037
RightToes  -1.74624e-010 0 -3.6325e-017
Spine  3.7137 -1.20934 10.346
Spine1  11.012 -0.178349 -1.85074
HEad  -11.6433 5.19838 -7.94565
LeftShoulder1  9.6668 -13.1113 -50.7803
LeftArm  -12.24 11.0439 -29.5639
LeftForeArm  24.8062 -17.6651 -3.77695
LeftHand  -0.244104 0.0205437 5.32207
RightShoulder  6.75173 10.0624 43.3939
RightArm  -6.52626 -21.3773 35.9628
RightForeArm  4.01219 12.3898 6.79632
RightHand  -0.343266 -1.70503 -10.6648
LeftUpLeg  -7.87706 5.28136 7.22365
LeftLeg  29.3866 10.4075 6.58476
LeftFoot  -8.94785 0.164135 -5.30328
LeftToes  -6.82154e-011 1.37952e-011 -1.79748e-011
34
root  80.75 39.3695 -2.60976 130.213 -88.9938 -132.158
RightUpLeg  -0.20791 -12.149 -2.61039
RightLeg  16.8551 -3.50389 1.71482
RightFoot  -15.2252 -0.108751 -0.169435
RightToes  -1.74624e-010 0 -3.6325e-017
Spine  4.62759 -1.06327 10.3288
Spine1  10.2511 -0.0474963 -1.40844
HEad  -12.3269 4.85061 -7.59147
LeftShoulder1  9.89344 -13.2996 -51.3825
LeftArm  -10.5994 12.0598 -27.9373
LeftForeArm  24.3859 -19.5049 -3.69832
LeftHand  -0.244104 0.0205437 5.32207
RightShoulder  6.78963 10.1047 43.5077
RightArm  -5.49281 -19.4147 34.3959
RightForeArm  0.405574 12.8161 7.00395
RightHand  -0.476953 -1.18695 -13.0382
LeftUpLeg  -11.916 4.33887 6.05789
LeftLeg  35.8485 9.50183 7.61437
LeftFoot  -8.57359 0.148608 -3.99283
LeftToes  -6.82154e-011 1.37952e-011 -1.79748e-011
35
root  80.3465 39.3923 -2.75848 170.557 -89.2577 -172.077
RightUpLeg  0.0509579 -11.9352 -3.19065
RightLeg  16.7377 -3.61573 1.73468
RightFoot  -15.6456 -0.114091 -0.222015
RightToes  -1.74624e-010 0 -3.6325e-017
Spine  4.47057 -0.841355 10.1141
Spine1  10.3958 0.265351 -1.82211
HEad  -13.188 4.62411 -6.86939
LeftShoulder1  9.67746 -13.1227 -50.8043
LeftArm  -9.8721 13.0282 -27.2815
LeftForeArm  23.8653 -21.1337 -3.6411
LeftHand  -0.244104 0.0205437 5.32207
RightShoulder  6.84502 10.217 43.5038
RightArm  -5.68867 -16.3091 33.596
RightForeArm  -3.14204 12.9292 7.13883
RightHand  -0.767794 0.179713 -15.987
LeftUpLeg  -15.6103 4.54655 4.19409
LeftLeg  39.1043 6.6718 6.16434
LeftFoot  -9.09204 0.141907 -4.49281
LeftToes  -6.82154e-011 1.37952e-011 -1.79748e-011
36
root  79.8881 39.4569 -2.89814 -141.393 -88.7579 140.531
RightUpLeg  0.456779 -11.6848 -4.03121
RightLeg  15.9547 -3.52724 2.05307
RightFoot  -15.8158 -0.107706 -0.0166257
RightToes  -1.74624e-010 0 -3.6325e-017
Spine  4.35748 -0.361094 9.8813
Spine1  9.97755 0.852869 -2.49389
HEad  -13.4412 4.13876 -6.50423
LeftShoulder1  9.48806 -12.9508 -50.3347
LeftArm  -9.60129 14.2117 -26.5618
LeftForeArm  23.5018 -22.3333 -3.67799
LeftHand  -0.244104 0.0205437 5.32207
RightShoulder  6.72694 10.1196 43.0324
RightArm  -5.69737 -13.3354 33.4576
RightForeArm  -6.35353 14.0498 6.99385
RightHand  -1.12291 1.76125 -18.327
LeftUpLeg  -18.6037 5.44436 2.01808
LeftLeg  38.8272 4.78251 4.4952
LeftFoot  -9.34202 0.159816 -5.89807
LeftToes  -6.82154e-011 1.37952e-011 -1.79748e-011
37
root  79.3836 39.5407 -3.03107 -131.838 -87.935 131.526
RightUpLeg  1.30855 -11.2015 -4.81814
RightLeg  14.6016 -3.5975 2.41951
RightFoot  -15.6873 -0.103871 0.0586483
RightToes  -1.74624e-010 0 -3.6325e-017
Spine  4.42479 0.202031 9.93193
Spine1  9.4692 1.65115 -3.6781
HEad  -13.3786 3.33965 -6.4315
LeftShoulder1  9.30857 -12.8302 -49.7515
LeftArm  -9.94245 15.452 -25.9835
LeftForeArm  23.4152 -23.2084 -3.76548
LeftHand  -0.244104 0.0205437 5.32207
RightShoulder  6.5507 9.92277 42.4877
RightArm  -4.51937 -10.3662 33.5558
RightForeArm  -8.8304 16.3377 6.54216
RightHand  -1.26174 2.39336 -18.8945
LeftUpLeg  -20.6836 6.82521 -0.182463
LeftLeg  35.7174 5.05545 4.23704
LeftFoot  -8.77949 0.196504 -6.45799
LeftToes  -6.82154e-011 1.37952e-011 -1.79748e-011
38
root  78.8276 39.6053 -3.15622 -129.054 -87.208 129.104
RightUpLeg  2.5002 -10.6526 -5.47327
RightLeg  13.1379 -3.75593 2.68678
RightFoot  -15.5907 -0.107359 -0.0491588
RightToes  -1.74624e-010 0 -3.6325e-017
Spine  4.71794 0.712214 9.87073
Spine1  8.99825 2.38778 -4.76622
HEad  -13.7259 3.09647 -6.62713
LeftShoulder1  9.21457 -12.7883 -49.3764
LeftArm  -10.4997 16.7848 -25.346
LeftForeArm  23.2928 -23.9211 -3.89138
LeftHand  -0.244104 0.0205437 5.32207
RightShoulder  6.43988 9.77095 42.2303
RightArm  -2.19938 -7.13334 33.2841
RightForeArm  -10.5061 19.2343 5.93046
RightHand  -1.11408 1.8874 -17.8276
LeftUpLeg  -22.1348 8.44305 -2.30394
LeftLeg  31.1079 6.15419 4.34024
LeftFoot  -7.95919 0.219279 -5.81457
LeftToes  -6.82154e-011 1.37952e-011 -1.79748e-011
39
root  78.2103 39.6167 -3.26099 -125.922 -86.744 126.266
RightUpLeg  3.86634 -10.3375 -6.06773
RightLeg  11.8024 -3.76734 2.99486
RightFoot  -15.8796 -0.0992921 0.198921
RightToes  -1.74624e-010 0 -3.6325e-017
Spine  4.87882 1.02386 9.66469
Spine1  8.82802 2.85075 -5.55393
HEad  -14.8469 3.94674 -7.03194
LeftShoulder1  9.18066 -12.7631 -49.271
LeftArm  -10.8255 18.0177 -24.7072
LeftForeArm  22.9122 -24.1935 -3.96872
LeftHand  -0.244104 0.0205437 5.32207
RightShoulder  6.42437 9.7481 42.1989
RightArm  -0.17207 -3.55228 32.6891
RightForeArm  -10.7589 22.0679 5.52145
RightHand  -0.920962 1.21941 -16.2591
LeftUpLeg  -23.2933 9.77547 -4.23151
LeftLeg  25.9057 6.0741 3.55557
LeftFoot  -7.07978 0.2338 -5.13021
LeftToes  -6.82154e-011 1.37952e-011 -1.79748e-011
40
root  77.5281 39.5827 -3.33882 -123.31 -86.5438 123.949
RightUpLeg  5.39434 -10.1781 -6.55181
RightLeg  10.4448 -3.69097 3.38513
RightFoot  -16.3133 -0.0782496 0.742066
RightToes  -1.74624e-010 0 -3.6325e-017
Spine  4.39437 1.14565 9.66642
Spine1  9.5579 3.16866 -6.43609
HEad  -16.301 4.95776 -7.38206
LeftShoulder1  9.11604 -12.708 -49.0897
LeftArm  -11.0363 18.8138 -24.4466
LeftForeArm  22.3374 -23.6164 -3.88739
LeftHand  -0.244104 0.0205437 5.32207
RightShoulder  6.47697 9.86272 42.1785
RightArm  0.444054 0.381043 32.1597
RightForeArm  -9.24081 24.339 5.63391
RightHand  -0.828508 1.03639 -15.0576
LeftUpLeg  -24.0997 10.8122 -5.89613
LeftLeg  20.2396 4.56009 2.23734
LeftFoot  -5.57921 0.270213 -4.71403
LeftToes  -6.82154e-011 1.37952e-011 -1.79748e-011
41
root  76.7681 39.5163 -3.40363 -124.113 -86.4109 125.001
RightUpLeg  7.01247 -10.0067 -6.83024
RightLeg  9.212 -3.64191 3.64853
RightFoot  -16.6362 -0.0774563 0.76543
RightToes  -1.74624e-010 0 -3.6325e-017
Spine  3.27117 1.2402 9.75937
Spine1  11.2545 3.52936 -7.32347
HEad  -17.3923 5.09832 -7.42416
LeftShoulder1  9.02044 -12.6629 -48.7093
LeftArm  -11.4054 19.2138 -24.6683
LeftForeArm  21.6657 -22.1869 -3.73461
LeftHand  -0.244104 0.0205437 5.32207
RightShoulder  6.56622 10.0903 42.0344
RightArm  0.433751 4.51851 31.9137
RightForeArm  -7.34284 25.9211 5.93703
RightHand  -0.779037 0.957481 -14.3344
LeftUpLeg  -24.355 10.6803 -6.58131
LeftLeg  14.5067 4.29036 0.799668
LeftFoot  -3.46957 0.285153 -3.85823
LeftToes  -6.82154e-011 1.37952e-011 -1.79748e-011
42
root  75.909 39.396 -3.46824 -127.896 -86.2395 128.93
RightUpLeg  8.66215 -9.91448 -7.02273
RightLeg  8.45316 -3.42502 3.72881
RightFoot  -17.2124 -0.0970614 0.381073
RightToes  -1.74624e-010 0 -3.6325e-017
Spine  2.41374 1.42798 9.48242
Spine1  12.5554 3.89881 -7.76635
HEad  -17.8288 4.67714 -7.09474
LeftShoulder1  9.00361 -12.7316 -48.411
LeftArm  -11.3932 19.7503 -24.9038
LeftForeArm  20.804 -20.1393 -3.72009
LeftHand  -0.244104 0.0205437 5.32207
RightShoulder  6.64192 10.3045 41.8468
RightArm  0.422641 8.05158 31.814
RightForeArm  -5.89975 27.2011 6.16636
RightHand  -0.698795 0.469561 -13.9093
LeftUpLeg  -24.1426 6.68432 -4.85051
LeftLeg  10.0856 9.02124 -1.14867
LeftFoot  -1.82051 0.240736 -2.74595
LeftToes  -6.82154e-011 1.37952e-011 -1.79748e-011
43
root  74.9382 39.1918 -3.51745 -131.809 -86.1161 132.911
RightUpLeg  10.3933 -9.9863 -7.34874
RightLeg  8.18181 -2.78784 3.82535
RightFoot  -18.3393 -0.0790349 0.718275
RightToes  -1.74624e-010 0 -3.6325e-017
Spine  2.26629 1.65235 8.96184
Spine1  12.6296 4.21324 -8.00918
HEad  -17.8626 4.50712 -6.46385
LeftShoulder1  9.04771 -12.8724 -48.2292
LeftArm  -10.5306 20.5867 -24.8511
LeftForeArm  20.2167 -17.5705 -3.98441
LeftHand  -0.244104 0.0205437 5.32207
RightShoulder  6.66989 10.4154 41.6764
RightArm  0.244753 10.2142 31.8084
RightForeArm  -4.48337 28.5248 6.41309
RightHand  -0.61643 -0.19845 -13.8073
LeftUpLeg  -24.3914 4.74352 -4.01659
LeftLeg  8.36785 11.7741 -2.01981
LeftFoot  -1.14355 0.190964 -2.05055
LeftToes  -6.82154e-011 1.37952e-011 -1.79748e-011
